<svg width="50" height="37" viewBox="0 0 50 37" fill="none" xmlns="http://www.w3.org/2000/svg">
<g clip-path="url(#clip0_4423_32628)">
<path d="M31.2708 0.119873L26.4805 4.93788L39.4722 18.0036L26.547 31.0047L31.5989 36.0858L49.4791 18.1034L31.2708 0.119873Z" fill="#FEC760"/>
<path d="M18.3333 0.119873L13.543 4.93788L26.5347 18.0036L13.6084 31.0047L18.6603 36.0858L36.5405 18.1034L18.3333 0.119873Z" fill="#FEC760"/>
<path d="M18.6858 22.9625L23.517 18.1034L5.30985 0.119873L0.519531 4.93788L18.6858 22.9625Z" fill="#FEC760"/>
<path d="M12.1789 19.346L7.12695 24.4272L12.1789 29.5084L17.2309 24.4272L12.1789 19.346Z" fill="#F0706F"/>
<path d="M5.60473 25.9559L0.552734 31.0371L5.60473 36.1183L10.6567 31.0371L5.60473 25.9559Z" fill="#F0706F"/>
<path d="M44.427 25.9559L39.375 31.0371L44.427 36.1183L49.479 31.0371L44.427 25.9559Z" fill="#F0706F"/>
</g>
<defs>
<clipPath id="clip0_4423_32628">
<rect width="48.96" height="36" fill="white" transform="translate(0.519531 0.119873)"/>
</clipPath>
</defs>
</svg>
